<?xml version="1.0" standalone="no"?>
<!DOCTYPE svg PUBLIC "-//W3C//DTD SVG 20010904//EN" "http://www.w3.org/TR/2001/REC-SVG-20010904/DTD/svg10.dtd">
<svg version="1.0" xmlns="http://www.w3.org/2000/svg"
  width="580.000000pt" height="430.000000pt" viewBox="0 0 580.000000 430.000000"
  preserveAspectRatio="xMidYMid meet">

  <g transform="translate(0.000000,430.000000) scale(0.100000,-0.100000)"
    fill="currentColor" stroke="none">
    <path
      fill="currentColor"
      d="M1795 4100 c-214 -99 -413 -191 -442 -205 -29 -14 -137 -64 -240
-111 -103 -47 -222 -102 -263 -121 -41 -20 -156 -73 -255 -118 -99 -45 -225
-104 -280 -130 -55 -26 -145 -67 -200 -92 -55 -25 -103 -48 -106 -51 -4 -4 -3
-56 2 -117 15 -198 19 -258 29 -450 10 -177 24 -397 35 -525 2 -30 7 -109 10
-175 4 -66 15 -250 25 -410 11 -159 22 -333 25 -385 3 -52 14 -230 25 -395 11
-165 27 -410 35 -544 9 -135 17 -246 19 -248 1 -2 26 48 54 109 50 111 178
387 261 563 24 50 62 133 86 185 24 52 73 157 109 233 36 77 66 140 66 142 0
2 32 69 70 150 39 81 70 148 70 150 0 1 55 119 121 261 67 143 151 322 186
399 135 291 256 553 290 625 61 128 183 389 243 520 31 69 74 161 95 205 21
44 63 136 95 205 32 69 99 212 148 318 50 105 87 192 84 192 -4 0 -182 -82
-397 -180z" />
    <path
      fill="currentColor"
      d="M3600 4275 c0 -4 32 -75 71 -159 40 -83 82 -173 94 -201 13 -27 44
-95 70 -150 26 -55 73 -156 105 -225 59 -127 203 -437 337 -725 42 -88 101
-216 133 -285 32 -69 79 -170 105 -225 26 -55 69 -149 97 -209 28 -61 77 -166
109 -234 32 -68 59 -125 59 -127 0 -2 32 -69 70 -150 39 -81 70 -148 70 -150
0 -1 24 -54 54 -116 30 -63 95 -204 146 -314 136 -292 222 -478 270 -580 23
-49 57 -121 75 -160 92 -200 109 -235 113 -231 5 6 17 161 32 401 5 99 19 319
30 490 75 1177 116 1828 130 2055 6 91 13 193 16 227 l6 63 -93 44 c-52 24
-119 55 -149 69 -149 68 -305 140 -395 182 -55 26 -172 80 -260 120 -88 40
-205 94 -260 120 -55 26 -172 80 -260 120 -88 40 -196 90 -240 110 -81 38
-499 232 -522 242 -7 3 -13 2 -13 -2z" />
    <path
      fill="currentColor"
      d="M2857 3868 c-30 -54 -601 -1105 -692 -1273 -18 -33 -126 -231 -240
-440 -114 -209 -223 -409 -242 -445 -20 -36 -75 -137 -123 -225 -48 -88 -133
-243 -188 -345 -55 -102 -175 -321 -265 -487 l-165 -303 1955 0 1955 0 -25 43
c-23 40 -101 182 -182 332 -21 39 -77 142 -125 230 -48 88 -143 261 -210 385
-68 124 -163 299 -213 390 -49 91 -102 188 -117 215 -15 28 -79 145 -142 260
-63 116 -137 251 -163 300 -27 50 -67 124 -90 165 -23 41 -63 116 -90 165 -26
50 -96 178 -155 285 -59 107 -180 330 -270 495 -89 165 -166 304 -170 308 -4
5 -24 -20 -43 -55z m516 -1658 c102 -29 156 -58 215 -117 80 -80 114 -161 120
-289 5 -113 -3 -162 -49 -287 -83 -230 -294 -442 -574 -577 -221 -107 -391
-145 -610 -137 -192 7 -322 52 -425 144 -106 95 -150 195 -150 342 0 105 20
179 74 273 48 85 62 102 80 95 13 -5 12 -15 -6 -74 -14 -48 -21 -99 -22 -173
-1 -96 1 -110 28 -167 84 -182 272 -237 576 -168 269 62 589 246 731 422 92
115 123 187 127 296 4 80 2 93 -24 143 -34 68 -89 116 -163 146 -80 31 -244
32 -354 0 -147 -42 -274 -119 -377 -229 -74 -79 -111 -146 -118 -214 -7 -72 5
-116 44 -159 47 -51 88 -64 191 -57 68 4 96 11 156 40 196 94 300 259 196 312
-62 32 -159 13 -264 -52 -41 -25 -78 -43 -81 -40 -23 22 83 153 161 197 32 18
83 37 120 43 84 14 158 -7 221 -65 57 -53 77 -107 72 -196 -5 -101 -50 -186
-148 -283 -251 -249 -628 -271 -790 -47 -73 101 -80 259 -17 390 104 211 376
411 662 484 121 31 299 33 398 4z" />
  </g>
</svg>
