<svg width="500" height="500" viewBox="0 0 500 500" fill="none" xmlns="http://www.w3.org/2000/svg">
<path d="M250 60L63.8 126.4L92.2 372.6L250 460L407.8 372.6L436.2 126.4L250 60Z" fill="#0EA5E9"/>
<path d="M250 60V104.4V104.2V306.8V460L407.8 372.6L436.2 126.4L250 60Z" fill="#0284C7"/>
<path d="M241.175 156.671C197.884 160.283 162.005 192.631 154.647 234.611C154.217 237.176 153.68 243.143 153.519 247.906L153.196 256.543L143.475 265.965C125.643 283.238 116.297 296.534 112.967 309.253C109.583 322.444 115.921 332.337 130.262 336.21C135.633 337.676 152.659 337.466 162.757 335.896C171.673 334.483 183.543 331.761 190.149 329.563C192.781 328.673 195.252 327.992 195.628 327.992C196.004 327.992 197.723 328.882 199.388 329.929C204.275 332.965 214.856 337.676 220.818 339.456C229.681 342.125 236.072 343.172 245.74 343.486C265.667 344.166 283.338 339.665 300.364 329.51C312.02 322.548 323.943 310.928 331.087 299.57C340.486 284.547 344.783 270.519 345.481 252.146L345.804 243.562L355.579 234.088C369.437 220.583 377.117 210.899 382.435 200.221C387.43 190.119 388.235 182.005 384.905 175.41C378.353 162.481 358.265 159.236 326.79 165.988C322.225 166.983 315.242 168.763 311.268 169.914C307.347 171.066 303.802 172.008 303.372 172.008C302.996 172.008 301.116 171.066 299.236 169.914C283.177 160.021 261.155 154.996 241.175 156.671ZM265.774 166.773C291.717 171.746 314.329 188.025 326.307 210.428L329.261 215.924L325.286 219.484C312.073 231.261 291.18 246.179 271.253 258.113C239.402 277.166 206.746 292.189 180.159 300.041C178.494 300.512 170.814 287.426 167.645 278.894C152.713 238.17 171.297 193.364 211.204 173.945C220.013 169.652 230.272 166.878 242.518 165.517C247.19 164.994 260.189 165.674 265.774 166.773ZM368.201 172.95C381.038 177.085 380.984 188.653 367.986 206.607C341.292 243.457 272.596 289.624 208.411 313.859C176.937 325.689 148.255 330.976 132.84 327.731C127.63 326.579 123.548 323.7 121.99 320.036C118.177 311.19 127.63 294.492 148.147 273.764L154.808 267.064L155.452 269.786L156.15 272.508L152.82 276.015C145.569 283.5 139.93 292.398 138.909 297.738C137.835 303.443 140.198 308.311 145.301 310.823C153.465 314.854 167.376 313.441 188.968 306.427C218.777 296.795 246.439 283.762 277.698 264.761C319.808 239.165 350.315 212.26 354.988 196.662C357.298 189.02 354.29 183 346.985 180.54C341.722 178.708 327.488 179.545 317.391 182.267C316.585 182.477 315.672 182.058 314.275 180.854C313.201 179.964 312.396 179.074 312.557 178.97C313.47 178.08 331.517 173.892 340.54 172.531C349.564 171.118 363.206 171.327 368.201 172.95ZM343.978 188.915C344.998 189.281 346.072 189.962 346.395 190.433C347.2 191.689 346.019 195.615 343.763 199.227C341.614 202.681 336.995 208.334 336.297 208.334C336.028 208.387 334.471 206.188 332.859 203.466C331.248 200.745 328.509 196.609 326.79 194.306C325.071 192.003 323.729 190.066 323.782 189.962C323.89 189.909 325.877 189.491 328.24 189.072C333.45 188.182 341.507 188.077 343.978 188.915ZM336.297 255.601C335.008 270.833 330.657 283.657 322.708 295.696C306.004 321.135 276.839 335.896 245.74 334.588C233.387 334.116 221.839 331.29 211.634 326.317L206.961 324.014L213.621 321.502C252.293 306.741 299.397 280.307 330.066 256.124C333.182 253.664 335.921 251.623 336.189 251.623C336.404 251.57 336.458 253.402 336.297 255.601ZM161.146 287.007C162.273 289.572 164.637 294.021 166.356 296.952C168.074 299.884 169.471 302.396 169.471 302.501C169.471 302.606 167.645 303.024 165.442 303.338C159.749 304.228 152.337 304.176 149.92 303.181C148.147 302.448 147.986 302.187 147.986 300.355C147.986 297.528 150.94 292.084 155.291 286.745C157.278 284.39 158.943 282.453 158.997 282.453C159.051 282.453 160.018 284.495 161.146 287.007Z" fill="white"/>
</svg>
